<svg xmlns="http://www.w3.org/2000/svg" width="31" height="32" viewBox="0 0 31 32" fill="none">
    <path d="M18.4982 0.56127C13.3756 -1.65024 10.3305 4.29454 13.1264 7.85167C13.6678 4.17204 16.1528 2.43647 18.4982 0.56127ZM6.98721 8.61902C5.66632 9.34414 5.11772 10.8419 3.53394 11.3046C4.14189 14.1872 1.76831 16.7243 4.30129 14.374V11.6884C6.64519 10.4071 8.2712 6.50947 11.9752 7.85129C10.8145 6.22642 11.5791 2.76403 11.2078 1.32824C9.22877 1.87722 7.36233 3.81785 8.52153 6.31621C6.37812 5.16956 1.90641 6.78529 2.38235 8.23477C3.25622 7.51194 6.57747 7.60476 6.98721 8.61902ZM6.73193 14.374C6.73193 14.374 7.82646 12.6235 9.5141 11.7204C9.82759 11.5526 6.47628 11.7204 6.47628 11.7204L6.73193 14.374ZM14.2776 7.85129C16.3986 5.11211 19.7621 3.61469 24.6378 3.63067C21.7385 -2.00633 13.5863 4.08606 14.2776 7.85129ZM26.9402 13.607C25.5326 9.75274 19.9416 8.65554 14.6619 9.38599C25.1282 11.9734 13.0378 22.7966 14.6619 28.1878C15.4349 30.7554 20.4042 32.4803 24.6378 30.8737C15.8785 29.1644 25.0894 13.7447 18.8825 10.5376C26.7542 12.6909 18.02 26.4419 23.8701 27.4204C22.2536 26.3624 22.4849 25.2523 22.7101 24.7513C24.7314 21.0538 28.6922 18.4047 26.9402 13.607ZM15.0453 8.23516C22.1862 6.94584 27.9667 10.0795 28.8588 16.2929C34.3048 5.71359 20.0812 1.89662 15.0453 8.23516ZM14.6619 10.5372C17.7693 14.3679 15.6267 20.5588 9.28926 19.3619C9.72144 20.4644 9.36725 22.3541 10.0574 23.1991C10.6764 20.7498 12.5835 19.5856 16.1966 20.1293C17.7838 17.5491 18.1562 11.2273 14.6619 10.5372ZM8.11674 25.8005C8.08022 25.8268 8.02467 25.8758 7.94706 25.9523C7.71728 26.1269 7.42852 26.2426 7.04504 26.2624C7.01422 26.257 6.98493 26.251 6.95601 26.2434C6.75248 26.0767 5.52137 25.0381 5.44908 24.1574C5.50577 24.0737 5.59708 23.9866 5.74621 23.9238C5.76067 23.9196 5.77398 23.9154 5.78844 23.9109C6.67791 23.8237 6.94536 24.3586 7.75494 24.3499C7.52554 23.667 8.87915 22.7566 7.75494 22.4321C5.52593 24.905 0.905852 21.8371 3.15046 18.595C1.76869 18.4922 1.30151 19.3041 0.0810547 19.3623C2.64865 23.0617 5.48104 26.4956 9.67313 28.5717C9.24133 27.4684 9.5959 25.5791 8.90616 24.7345C8.64099 25.0876 8.42794 25.4935 8.11674 25.8005Z" fill="black"/>
</svg>